# xmcd
#
# Track frame offsets:
# 150
# 17463
# 28650
# 41787
# 59590
# 77833
# 92207
# 102918
# 118585
# 135264
# 155315
# 169878
# 181829
# 193447
# 213710
# 236851
#
# Disc length: 3347 seconds
#
# Revision: 0
# Processed by: cddbd v1.5.1PL0 Copyright (c) Steve Scherf et al.
# Submitted via: Audion 3.0.2 (http://www.panic.com/audion/)
#
DISCID=df0d1110
DTITLE=77 el Deora - Sirens
DYEAR=1900
DGENRE=
TTITLE0=(Ain't I a) Handsome Fool?
TTITLE1=This Record Sucks
TTITLE2=My Old Address Book
TTITLE3=Bad Boy
TTITLE4=Is This Gonna Hurt?
TTITLE5=The Devil in My Ear
TTITLE6=3:30 in the Afternoon
TTITLE7=Lucky Tonight
TTITLE8=The Same
TTITLE9=Color Me Gone
TTITLE10=Fire on the Mountain
TTITLE11=Cryin' Over You
TTITLE12=Orange Jumpsuit
TTITLE13=Wash Your Hands
TTITLE14=Workin'
TTITLE15=Keep Your Hands To Yourself
EXTD=
EXTT0=
EXTT1=
EXTT2=
EXTT3=
EXTT4=
EXTT5=
EXTT6=
EXTT7=
EXTT8=
EXTT9=
EXTT10=
EXTT11=
EXTT12=
EXTT13=
EXTT14=
EXTT15=
PLAYORDER=
